<?xml version="1.0" encoding="UTF-8"?>
<svg xmlns="http://www.w3.org/2000/svg" style="display: none;">
  <symbol id="lucide-audio-lines" viewBox="0 0 24 24">
    <path d="M2 10v3M6 6v11M10 3v18M14 8v7M18 5v13M22 10v3"/>
  </symbol>
  <symbol id="lucide-brain-cog" viewBox="0 0 24 24">
    <path d="m10.852 14.772-.383.923M10.852 9.228l-.383-.923M13.148 14.772l.382.924M13.531 8.305l-.383.923M14.772 10.852l.923-.383M14.772 13.148l.923.383M17.598 6.5A3 3 0 1 0 12 5a3 3 0 0 0-5.63-1.446 3 3 0 0 0-.368 1.571 4 4 0 0 0-2.525 5.771"/><path d="M17.998 5.125a4 4 0 0 1 2.525 5.771"/><path d="M19.505 10.294a4 4 0 0 1-1.5 7.706"/><path d="M4.032 17.483A4 4 0 0 0 11.464 20c.18-.311.892-.311 1.072 0a4 4 0 0 0 7.432-2.516"/><path d="M4.5 10.291A4 4 0 0 0 6 18M6.002 5.125a3 3 0 0 0 .4 1.375M9.228 10.852l-.923-.383M9.228 13.148l-.923.383"/><circle cx="12" cy="12" r="3"/>
  </symbol>
  <symbol id="lucide-database" viewBox="0 0 24 24">
    <ellipse cx="12" cy="5" rx="9" ry="3"/><path d="M3 5v14a9 3 0 0 0 18 0V5"/><path d="M3 12a9 3 0 0 0 18 0"/>
  </symbol>
  <symbol id="lucide-flag" viewBox="0 0 24 24">
    <path d="M4 22V4a1 1 0 0 1 .4-.8A6 6 0 0 1 8 2c3 0 5 2 7.333 2q2 0 3.067-.8A1 1 0 0 1 20 4v10a1 1 0 0 1-.4.8A6 6 0 0 1 16 16c-3 0-5-2-8-2a6 6 0 0 0-4 1.528"/>
  </symbol>
  <symbol id="lucide-globe" viewBox="0 0 24 24">
    <circle cx="12" cy="12" r="10"/><path d="M12 2a14.5 14.5 0 0 0 0 20 14.5 14.5 0 0 0 0-20M2 12h20"/>
  </symbol>
  <symbol id="lucide-image" viewBox="0 0 24 24">
    <rect width="18" height="18" x="3" y="3" rx="2" ry="2"/><circle cx="9" cy="9" r="2"/><path d="m21 15-3.086-3.086a2 2 0 0 0-2.828 0L6 21"/>
  </symbol>
  <symbol id="lucide-alarm-clock" viewBox="0 0 24 24">
    <circle cx="12" cy="13" r="8"/><path d="M12 9v4l2 2M5 3 2 6M22 6l-3-3M6.38 18.7 4 21M17.64 18.67 20 21"/>
  </symbol>
  <symbol id="lucide-braces" viewBox="0 0 24 24">
    <path d="M8 3H7a2 2 0 0 0-2 2v5a2 2 0 0 1-2 2 2 2 0 0 1 2 2v5c0 1.1.9 2 2 2h1M16 21h1a2 2 0 0 0 2-2v-5c0-1.1.9-2 2-2a2 2 0 0 1-2-2V5a2 2 0 0 0-2-2h-1"/>
  </symbol>
  <symbol id="lucide-cake-slice" viewBox="0 0 24 24">
    <path d="M16 13H3M16 17H3M7.2 7.9l-3.388 2.5A2 2 0 0 0 3 12.01V20a1 1 0 0 0 1 1h16a1 1 0 0 0 1-1v-8.654c0-2-2.44-6.026-6.44-8.026a1 1 0 0 0-1.082.057L10.4 5.6"/><circle cx="9" cy="7" r="2"/>
  </symbol>
  <symbol id="lucide-calendar" viewBox="0 0 24 24">
    <path d="M8 2v4M16 2v4"/><rect width="18" height="18" x="3" y="4" rx="2"/><path d="M3 10h18"/>
  </symbol>
  <symbol id="lucide-chevrons-down" viewBox="0 0 24 24">
    <path d="m7 6 5 5 5-5M7 13l5 5 5-5"/>
  </symbol>
  <symbol id="lucide-fingerprint" viewBox="0 0 24 24">
    <path d="M12 10a2 2 0 0 0-2 2c0 1.02-.1 2.51-.26 4M14 13.12c0 2.38 0 6.38-1 8.88M17.29 21.02c.12-.6.43-2.3.5-3.02M2 12a10 10 0 0 1 18-6M2 16h.01M21.8 16c.2-2 .131-5.354 0-6"/><path d="M5 19.5C5.5 18 6 15 6 12a6 6 0 0 1 .34-2M8.65 22c.21-.66.45-1.32.57-2M9 6.8a6 6 0 0 1 9 5.2v2"/>
  </symbol>
  <symbol id="lucide-letter-text" viewBox="0 0 24 24">
    <path d="M15 5h6M15 12h6M3 19h18M3 12l3.553-7.724a.5.5 0 0 1 .894 0L11 12M3.92 10h6.16"/>
  </symbol>
  <symbol id="lucide-link" viewBox="0 0 24 24">
    <path d="M10 13a5 5 0 0 0 7.54.54l3-3a5 5 0 0 0-7.07-7.07l-1.72 1.71"/><path d="M14 11a5 5 0 0 0-7.54-.54l-3 3a5 5 0 0 0 7.07 7.07l1.71-1.71"/>
  </symbol>
  <symbol id="lucide-message-square" viewBox="0 0 24 24">
    <path d="M22 17a2 2 0 0 1-2 2H6.828a2 2 0 0 0-1.414.586l-2.202 2.202A.71.71 0 0 1 2 21.286V5a2 2 0 0 1 2-2h16a2 2 0 0 1 2 2z"/>
  </symbol>
  <symbol id="lucide-messages-square" viewBox="0 0 24 24">
    <path d="M16 10a2 2 0 0 1-2 2H6.828a2 2 0 0 0-1.414.586l-2.202 2.202A.71.71 0 0 1 2 14.286V4a2 2 0 0 1 2-2h10a2 2 0 0 1 2 2zM20 9a2 2 0 0 1 2 2v10.286a.71.71 0 0 1-1.212.502l-2.202-2.202A2 2 0 0 0 17.172 19H10a2 2 0 0 1-2-2v-1"/>
  </symbol>
  <symbol id="lucide-octagon-x" viewBox="0 0 24 24">
    <path d="m15 9-6 6M2.586 16.726A2 2 0 0 1 2 15.312V8.688a2 2 0 0 1 .586-1.414l4.688-4.688A2 2 0 0 1 8.688 2h6.624a2 2 0 0 1 1.414.586l4.688 4.688A2 2 0 0 1 22 8.688v6.624a2 2 0 0 1-.586 1.414l-4.688 4.688a2 2 0 0 1-1.414.586H8.688a2 2 0 0 1-1.414-.586zM9 9l6 6"/>
  </symbol>
  <symbol id="lucide-skull" viewBox="0 0 24 24">
    <path d="m12.5 17-.5-1-.5 1z"/><path d="M15 22a1 1 0 0 0 1-1v-1a2 2 0 0 0 1.56-3.25 8 8 0 1 0-11.12 0A2 2 0 0 0 8 20v1a1 1 0 0 0 1 1z"/><circle cx="15" cy="12" r="1"/><circle cx="9" cy="12" r="1"/>
  </symbol>
  <symbol id="lucide-siren" viewBox="0 0 24 24">
    <path d="M7 18v-6a5 5 0 1 1 10 0v6M5 21a1 1 0 0 0 1 1h12a1 1 0 0 0 1-1v-1a2 2 0 0 0-2-2H7a2 2 0 0 0-2 2zM21 12h1M18.5 4.5 18 5M2 12h1M12 2v1M4.929 4.929l.707.707M12 12v6"/>
  </symbol>
  <symbol id="lucide-save" viewBox="0 0 24 24">
    <path d="M15.2 3a2 2 0 0 1 1.4.6l3.8 3.8a2 2 0 0 1 .6 1.4V19a2 2 0 0 1-2 2H5a2 2 0 0 1-2-2V5a2 2 0 0 1 2-2z"/><path d="M17 21v-7a1 1 0 0 0-1-1H8a1 1 0 0 0-1 1v7M7 3v4a1 1 0 0 0 1 1h7"/>
  </symbol>
  <symbol id="lucide-scan-eye" viewBox="0 0 24 24">
    <path d="M3 7V5a2 2 0 0 1 2-2h2M17 3h2a2 2 0 0 1 2 2v2M21 17v2a2 2 0 0 1-2 2h-2M7 21H5a2 2 0 0 1-2-2v-2"/><circle cx="12" cy="12" r="1"/><path d="M18.944 12.33a1 1 0 0 0 0-.66 7.5 7.5 0 0 0-13.888 0 1 1 0 0 0 0 .66 7.5 7.5 0 0 0 13.888 0"/>
  </symbol>
  <symbol id="lucide-scroll-text" viewBox="0 0 24 24">
    <path d="M15 12h-5M15 8h-5M19 17V5a2 2 0 0 0-2-2H4"/><path d="M8 21h12a2 2 0 0 0 2-2v-1a1 1 0 0 0-1-1H11a1 1 0 0 0-1 1v1a2 2 0 1 1-4 0V5a2 2 0 1 0-4 0v2a1 1 0 0 0 1 1h3"/>
  </symbol>
  <symbol id="lucide-shield-alert" viewBox="0 0 24 24">
    <path d="M20 13c0 5-3.5 7.5-7.66 8.95a1 1 0 0 1-.67-.01C7.5 20.5 4 18 4 13V6a1 1 0 0 1 1-1c2 0 4.5-1.2 6.24-2.72a1.17 1.17 0 0 1 1.52 0C14.51 3.81 17 5 19 5a1 1 0 0 1 1 1zM12 8v4M12 16h.01"/>
  </symbol>
  <symbol id="lucide-square-stop" viewBox="0 0 24 24">
    <rect width="18" height="18" x="3" y="3" rx="2"/><rect width="6" height="6" x="9" y="9" rx="1"/>
  </symbol>
  <symbol id="lucide-wrench" viewBox="0 0 24 24">
    <path d="M14.7 6.3a1 1 0 0 0 0 1.4l1.6 1.6a1 1 0 0 0 1.4 0l3.106-3.105c.32-.322.863-.22.983.218a6 6 0 0 1-8.259 7.057l-7.91 7.91a1 1 0 0 1-2.999-3l7.91-7.91a6 6 0 0 1 7.057-8.259c.438.12.54.662.219.984z"/>
  </symbol>
  <symbol id="lucide-file-chart-column-increasing" viewBox="0 0 24 24">
    <path d="M15 2H6a2 2 0 0 0-2 2v16a2 2 0 0 0 2 2h12a2 2 0 0 0 2-2V7Z"/><path d="M14 2v4a2 2 0 0 0 2 2h4M8 18v-2M12 18v-4M16 18v-6"/>
  </symbol>
  <symbol id="lucide-file-spreadsheet" viewBox="0 0 24 24">
    <path d="M15 2H6a2 2 0 0 0-2 2v16a2 2 0 0 0 2 2h12a2 2 0 0 0 2-2V7Z"/><path d="M14 2v4a2 2 0 0 0 2 2h4M8 13h2M14 13h2M8 17h2M14 17h2"/>
  </symbol>
  <symbol id="lucide-file-text" viewBox="0 0 24 24">
    <path d="M15 2H6a2 2 0 0 0-2 2v16a2 2 0 0 0 2 2h12a2 2 0 0 0 2-2V7Z"/><path d="M14 2v4a2 2 0 0 0 2 2h4M10 9H8M16 13H8M16 17H8"/>
  </symbol>
  <symbol id="lucide-file-up" viewBox="0 0 24 24">
    <path d="M15 2H6a2 2 0 0 0-2 2v16a2 2 0 0 0 2 2h12a2 2 0 0 0 2-2V7Z"/><path d="M14 2v4a2 2 0 0 0 2 2h4M12 12v6M15 15l-3-3-3 3"/>
  </symbol>
  <symbol id="lucide-image-down" viewBox="0 0 24 24">
    <path d="M10.3 21H5a2 2 0 0 1-2-2V5a2 2 0 0 1 2-2h14a2 2 0 0 1 2 2v10l-3.1-3.1a2 2 0 0 0-2.814.014L6 21"/><path d="m14 19 3 3v-5.5M17 22l3-3"/><circle cx="9" cy="9" r="2"/>
  </symbol>
  <symbol id="lucide-image-up" viewBox="0 0 24 24">
    <path d="M10.3 21H5a2 2 0 0 1-2-2V5a2 2 0 0 1 2-2h14a2 2 0 0 1 2 2v10l-3.1-3.1a2 2 0 0 0-2.814.014L6 21"/><path d="m14 19.5 3-3 3 3M17 22v-5.5"/><circle cx="9" cy="9" r="2"/>
  </symbol>
  <symbol id="lucide-bug" viewBox="0 0 24 24">
    <path d="M12 20v-9M14 7a4 4 0 0 1 4 4v3a6 6 0 0 1-12 0v-3a4 4 0 0 1 4-4zM14.12 3.88 16 2"/><path d="M21 21a4 4 0 0 0-3.81-4M21 5a4 4 0 0 1-3.55 3.97M22 13h-4M3 21a4 4 0 0 1 3.81-4M3 5a4 4 0 0 0 3.55 3.97M6 13H2M8 2l1.88 1.88M9 7.13V6a3 3 0 1 1 6 0v1.13"/>
  </symbol>
</svg>